# xmcd
#
# Track frame offsets:
#	150
#	19990
#	36993
#	55059
#	71664
#	91335
#	109673
#	123458
#	145436
#	169012
#	186520
#	206948
#	220885
#	237233
#	258525
#	272073
#	287933
#	305244
#	322144
#
# Disc length: 4432
#
# Revision: 1
# Processed by: cddbd v1.5.1PL0 Copyright (c) Steve Scherf et al.
# Submitted via: ExactAudioCopy v0.90b3
# Normalized: r0:DSETVAR1,TDELIM( - )
#
DISCID=3b114e13
DTITLE=Various Artist - BLUES PLANET Road
DYEAR=1999
DGENRE=Blues
TTITLE0=OMAR&THE HOWLERS - Black Bottom
TTITLE1=DAVE HOLE - Keep Your Motor Running
TTITLE2=BOB MARGOLIN - The Door Was Open
TTITLE3=B.B.KING&JOOLS HOLLAND - Pauly's Birhday Boogie
TTITLE4=TINSLEY ELLIS - To The Devil For A Dime
TTITLE5=RONNIE EARL - Green Light
TTITLE6=C.J.CHENIER - Man Smart,Woman Smarter
TTITLE7=DUKE ROBBILARD - Rule The World
TTITLE8=PETER GREEN - Slabo Day
TTITLE9=OTIS RUSH - I Miss You
TTITLE10=JUNIOR WELLS - Everybody's Gettin' Them Some
TTITLE11=ROY BUCHANAN - Goose Crease
TTITLE12=RON LEVY'S - Funk Finger
TTITLE13=ROBBEN FORD - The Brother
TTITLE14=TAJ MAHAL - Statesboro Blues
TTITLE15=LITTLE MIKE - I Should Have Known Better
TTITLE16=LONNIE MACK - Strike Like Lighting
TTITLE17=JOHN CAMPBELL - Couldn't Do Nothin
TTITLE18=KATIE WEBSTER - The Katie Lee
EXTD=
EXTT0=
EXTT1=
EXTT2=
EXTT3=
EXTT4=
EXTT5=
EXTT6=
EXTT7=
EXTT8=
EXTT9=
EXTT10=
EXTT11=
EXTT12=
EXTT13=
EXTT14=
EXTT15=
EXTT16=
EXTT17=
EXTT18=
PLAYORDER=
